<?xml version="1.0" encoding="UTF-8"?>
<svg id="Layer_1" data-name="Layer 1" xmlns="http://www.w3.org/2000/svg" viewBox="0 0 192 192">
  <defs>
    <style>
      .cls-1 {
        fill: #343433;
      }

      .cls-2 {
        fill: #fcba03;
      }
    </style>
  </defs>
  <path class="cls-2" d="M105.23,156.31l-.8.48-3.02,1.82-2.7,1.08-2.05.38c-.68.12-1.61.21-2.25,0l-1.35-.42-1.84-.46c-.78-.2-1.38-.89-2.04-1.38-.68-.32-1.4-.57-1.96-1.11-1.51-.31-2.62-1.7-3.28-2.02l-2-.99c-.72-.36-1.38-.6-2.03-1.13l-1.27-1.03-1.23-.52-.8-.43-1.81-.95c-1.03-.54-2.07-.93-2.95-1.8-.16-.15-.53-.38-.72-.47l-2.17-1.09-1.78-.92-1.67-.89c-1.24-.66-2.27-1.31-3.37-2.14-.51-.38-1.29-.56-1.88-.96-.82-.55-1.82-.8-2.56-1.54-.29-.29-.74-.58-1.1-.76l-1.56-.79-1.92-1.04c-1.21-.66-2.32-1.19-3.38-2.12l-1.73-.83-1.08-.56-2.33-1.19c-.13-.53-.53-.74-1.05-.72l-3.81-3.8c-.71-.7-1.04-1.47-1.31-2.42-.12-.42-.66-.69-.66-1.27v-56.25c0-1.27.67-2.92,1.33-3.9,1.11-1.66,2.65-3.01,4.26-4.15.24-.17,1.74-.64,1.92-1.09s.72-.37.98-.53c.43-.27.62-.45,1.16-.57.24-.09.43-.52.9-.56l1.27-.88c.49-.06.55-.23.88-.45.3-.2.82-.29,1.11-.65.31-.39.63-.42,1.06-.59l1.36-.54,1.34-.95,1.5-.91c.37-.23.48-.22.82-.5.25-.21.88-.18,1.11-.61.21-.4.77-.4,1.01-.61.37-.31.81-.32,1.11-.53.34-.25.49-.39.97-.5l.89-.55,1.23-.86c.39-.08.66-.25.95-.42l.85-.5c.78-.24,1.22-.73,1.89-1.16.28-.18.62-.13.94-.47.21-.23.84-.26,1.07-.62.28-.43.79-.46,1.13-.65l.98-.53.87-.5c.6-.34,1.27-1.03,2.67-1.52.29-.1.57-.49,1.04-.54l.92-.55,1.15-.77c.51-.02.63-.31.94-.46.64-.3,1.09-.68,1.67-1.12l1.14-.46c.34-.14.88-.19,1.12-.49.33-.41.64-.66,1.06-.88l.8-.43,1.06-.55c1.14-.59,2.14-1.33,2.84-1.56.22-.07,1.52-1.21,3.54-1.6l2.14-.42c1.79-.35,2.42.25,3.69.26.41,0,.67.15,1.02.21,1.17.22,2.19.94,2.4,1.01.93.34,1.82.78,2.48,1.5,1.26.86,3.27,1.47,4.01,2.13.18.16.56.38.79.5l.88.49.97.55c.38.22.81.26,1.16.63.26.27.73.4.98.62.34.3.67.33,1.03.51s.56.49,1.09.56l1.04.76c.44.08.57.38.86.52.37.19.66.25,1.03.5l.81.53,1.64.82.77.44c.33.19.48.27.81.48l1.29.82c1.01.65,2.1,1.04,2.94,1.57l.81.51.86.54c.26.16.62.31.88.46l1.9,1.08c.69.39,1.29.63,1.96,1.04l1.97,1.22,1.11.64.83.42,2.52,1.55c.38.24.84.35,1.19.58l1.66,1.06c.35.22.66.34,1.01.51l1.08.54,1.59,1.02c.28.18.32.4.82.46.42.06.92.68,1.36.84.5.18.94.27,1.32.62l1.98,1.82,1.1,1.22.63,1.15.5,1.02c.39.79.7,1.6,.7,2.6v55.68c.01.58-.11,1.03-.31,1.48l-.85,2-1.55,1.86-1.16,1.15c-1.05,1.05-2.24,1.96-3.69,2.45l-1.2.8-2.04,1.11-3.01,1.73-1.72.89-1.78,1.09c-.75.46-1.32.63-1.95,1.01l-1.71,1.04-1.79.95-1.33.83c-.38.24-.65.29-1.03.5l-1.71.99-1.3.85c-1.16.43-2.26.88-3.16,1.76-.36.36-.8.35-1.22.6l-.83.52-.85.5-1.17.57c-.91.68-1.77,1.19-2.84,1.56l-1.1.76c-.51.36-.93.53-1.5.74-.3.11-.53.43-.94.53l-1.19.92c-.21.16-.64.35-.87.35-.54-.01-.76.39-1.08.53-.58.25-1.01.31-1.48.81l-1.7.96c-.36.2-.55.31-.95.55ZM120.9,99.57l.03-12.19c0-.48.3-.93-.08-1.37l-18.32-.09c2.09-.7,3.95-1.21,5.58-2.53,1.27-.61,2.29-1.47,3.25-2.44l1.36-1.38,1.21-1.37,4.25-5.28,1.91-2.14c1.87-1.89,3.92-3.42,6.26-4.65l.89-.02c.09-.61.55-.68.99-.83,1.55-.53,3.07-.86,4.69-1.16l2.93-.18-3.73-1.57c-1.96-.66-3.99-1.09-6.04-1.28l-1.28-.12c-3.25-.3-6.39.39-9.48,1.49-4.01,1.43-8.04,4.95-10.72,8.32l-4.34,5.45c-2.87,3.6-7.37,7.2-11.76,8.56-1.25.38-2.44.72-3.74.86l-2.99.33-17.9.02v13.58s19.79-.02,19.79-.02c.18-.17.63-.05.65.18v25.13s.14,1.12.14,1.12l14.83-.02v-26.4s10.06.01,10.06.01h11.56ZM94.97,75.68l.98-.93c1.32-1.25,2.33-2.76,3.35-4.25l-.05-3.71h-14.87s-.05,1.12-.05,1.12v10.95c0,.51.1.91.02,1.43-.07.44.07.94.16,1.49,4.73-.86,7.19-2.97,10.46-6.08Z"/>
  <path class="cls-1" d="M120.9,99.57h-11.56s-10.05,0-10.05,0v26.4s-14.84.02-14.84.02l-.13-1.12v-25.13c-.02-.24-.47-.35-.65-.18l-19.78.02v-13.58s17.89-.02,17.89-.02l2.99-.33c1.3-.14,2.49-.48,3.74-.86,4.39-1.35,8.89-4.95,11.76-8.56l4.34-5.45c2.68-3.36,6.71-6.88,10.72-8.32,3.09-1.1,6.23-1.79,9.48-1.49l1.28.12c2.06.19,4.09.62,6.04,1.28l3.73,1.57-2.93.18c-1.62.3-3.15.62-4.69,1.16-.44.15-.9.22-.99.83l-.89.02c-2.34,1.24-4.39,2.76-6.26,4.65l-1.91,2.14-4.25,5.28-1.21,1.37-1.36,1.38c-.96.97-1.98,1.83-3.25,2.44-1.63,1.31-3.49,1.83-5.58,2.53l18.32.09c.38.44.08.9.08,1.37l-.03,12.19Z"/>
  <path class="cls-1" d="M94.97,75.68c-3.28,3.11-5.73,5.22-10.46,6.08-.09-.55-.23-1.05-.16-1.49.08-.52,0-.92-.01-1.43v-10.95s.05-1.1.05-1.1h14.87s.05,3.7.05,3.7c-1.02,1.49-2.03,3-3.35,4.25l-.98.93Z"/>
</svg>